<?xml version="1.0" encoding="UTF-8"?>
<svg width="200" height="200" viewBox="0 0 200 200" xmlns="http://www.w3.org/2000/svg">
  <!-- Background -->
  <rect x="0" y="0" width="200" height="200" fill="#1a1a2e"/>
  
  <!-- Mail envelope with animation -->
  <g transform="translate(100, 90)">
    <!-- Envelope body -->
    <rect x="-50" y="-30" width="100" height="60" fill="#f5f5f5" stroke="#333" stroke-width="2" rx="3"/>
    
    <!-- Envelope flap opening animation -->
    <path d="M -50,-30 L 0,0 L 50,-30" fill="#e0e0e0" stroke="#333" stroke-width="2">
      <animateTransform
        attributeName="transform"
        type="rotate"
        values="0 0 -30;-30 0 -30;0 0 -30"
        dur="4s"
        repeatCount="indefinite"/>
    </path>
    
    <!-- Mail content lines -->
    <g opacity="0.7">
      <rect x="-35" y="-15" width="70" height="2" fill="#666"/>
      <rect x="-35" y="-8" width="50" height="2" fill="#888"/>
      <rect x="-35" y="-1" width="60" height="2" fill="#888"/>
      <rect x="-35" y="6" width="45" height="2" fill="#888"/>
    </g>
    
    <!-- Fetching arrow animation -->
    <g>
      <path d="M 0,40 L 0,70" stroke="#CC342D" stroke-width="3" marker-end="url(#arrowhead)">
        <animate attributeName="opacity" values="0;1;0" dur="2s" repeatCount="indefinite"/>
      </path>
    </g>
  </g>
  
  <!-- Arrow marker -->
  <defs>
    <marker id="arrowhead" markerWidth="10" markerHeight="10" refX="5" refY="5" orient="auto">
      <path d="M 0,0 L 10,5 L 0,10 L 3,5 Z" fill="#CC342D"/>
    </marker>
  </defs>
  
  <!-- Ruby gem -->
  <g transform="translate(30, 30) scale(0.25)">
    <path d="M -20 -10 L 20 -10 L 30 0 L 20 10 L -20 10 L -30 0 Z" fill="#CC342D" opacity="0.6"/>
  </g>
  
  <!-- Text -->
  <text x="100" y="165" font-family="monospace" font-size="18" fill="#f5f5f5" text-anchor="middle" font-weight="bold">mailfetch</text>
  <text x="100" y="180" font-family="monospace" font-size="10" fill="#999" text-anchor="middle">IMAP Mail Collector</text>
</svg>